<?xml version="1.0" encoding="UTF-8" standalone="no"?>
<!-- Created with Inkscape (http://www.inkscape.org/) -->

<svg
   xmlns:dc="http://purl.org/dc/elements/1.1/"
   xmlns:cc="http://creativecommons.org/ns#"
   xmlns:rdf="http://www.w3.org/1999/02/22-rdf-syntax-ns#"
   xmlns:svg="http://www.w3.org/2000/svg"
   xmlns="http://www.w3.org/2000/svg"
   xmlns:sodipodi="http://sodipodi.sourceforge.net/DTD/sodipodi-0.dtd"
   xmlns:inkscape="http://www.inkscape.org/namespaces/inkscape"
   width="48"
   height="48"
   viewBox="0 0 12.7 12.7"
   version="1.1"
   id="svg8"
   inkscape:version="0.92.2 5c3e80d, 2017-08-06"
   sodipodi:docname="pyyama.svg"
   inkscape:export-filename="/home/jaakjuli/Documents/pyyama.svg.png"
   inkscape:export-xdpi="256"
   inkscape:export-ydpi="256">
  <defs
     id="defs2">
    <inkscape:path-effect
       effect="simplify"
       id="path-effect3725"
       is_visible="true"
       steps="1"
       threshold="0.000408163"
       smooth_angles="360"
       helper_size="0"
       simplify_individual_paths="false"
       simplify_just_coalesce="false"
       simplifyindividualpaths="false"
       simplifyJustCoalesce="false" />
    <inkscape:path-effect
       effect="simplify"
       id="path-effect3721"
       is_visible="true"
       steps="1"
       threshold="0.000408163"
       smooth_angles="360"
       helper_size="0"
       simplify_individual_paths="false"
       simplify_just_coalesce="false"
       simplifyindividualpaths="false"
       simplifyJustCoalesce="false" />
    <inkscape:path-effect
       effect="simplify"
       id="path-effect3717"
       is_visible="true"
       steps="1"
       threshold="0.000408163"
       smooth_angles="360"
       helper_size="0"
       simplify_individual_paths="false"
       simplify_just_coalesce="false"
       simplifyindividualpaths="false"
       simplifyJustCoalesce="false" />
    <inkscape:path-effect
       effect="simplify"
       id="path-effect3713"
       is_visible="true"
       steps="1"
       threshold="0.000408163"
       smooth_angles="360"
       helper_size="0"
       simplify_individual_paths="false"
       simplify_just_coalesce="false"
       simplifyindividualpaths="false"
       simplifyJustCoalesce="false" />
    <inkscape:path-effect
       effect="simplify"
       id="path-effect3709"
       is_visible="true"
       steps="1"
       threshold="0.000408163"
       smooth_angles="360"
       helper_size="0"
       simplify_individual_paths="false"
       simplify_just_coalesce="false"
       simplifyindividualpaths="false"
       simplifyJustCoalesce="false" />
    <inkscape:path-effect
       effect="simplify"
       id="path-effect3705"
       is_visible="true"
       steps="1"
       threshold="0.000408163"
       smooth_angles="360"
       helper_size="0"
       simplify_individual_paths="false"
       simplify_just_coalesce="false"
       simplifyindividualpaths="false"
       simplifyJustCoalesce="false" />
  </defs>
  <sodipodi:namedview
     id="base"
     pagecolor="#ffffff"
     bordercolor="#666666"
     borderopacity="1.0"
     inkscape:pageopacity="0.0"
     inkscape:pageshadow="2"
     inkscape:zoom="11.313708"
     inkscape:cx="24.461179"
     inkscape:cy="15.476376"
     inkscape:document-units="mm"
     inkscape:current-layer="layer1"
     showgrid="false"
     units="px"
     inkscape:window-width="1920"
     inkscape:window-height="1016"
     inkscape:window-x="0"
     inkscape:window-y="27"
     inkscape:window-maximized="1">
    <inkscape:grid
       type="xygrid"
       id="grid3699" />
  </sodipodi:namedview>
  <metadata
     id="metadata5">
    <rdf:RDF>
      <cc:Work
         rdf:about="">
        <dc:format>image/svg+xml</dc:format>
        <dc:type
           rdf:resource="http://purl.org/dc/dcmitype/StillImage" />
        <dc:title></dc:title>
      </cc:Work>
    </rdf:RDF>
  </metadata>
  <g
     inkscape:label="Layer 1"
     inkscape:groupmode="layer"
     id="layer1"
     transform="translate(0,-284.3)">
    <rect
       style="opacity:1;fill:#e8b3d5;fill-opacity:1;stroke:none;stroke-width:0.26458332;stroke-linecap:butt;stroke-linejoin:round;stroke-miterlimit:4;stroke-dasharray:none;stroke-dashoffset:0;stroke-opacity:1"
       id="rect4679"
       width="12.7"
       height="12.7"
       x="0"
       y="284.29999"
       ry="2.0345893" />
    <path
       style="fill:#7ab3d5;fill-opacity:1;fill-rule:evenodd;stroke:#000000;stroke-width:0.26499999;stroke-linecap:butt;stroke-linejoin:miter;stroke-miterlimit:4;stroke-dasharray:none;stroke-opacity:1"
       d="m 9.7895833,286.15208 c -0.1031767,-0.074 -0.2312595,-0.10228 -0.3555583,-0.11379 -0.2237809,-0.0207 -0.4505485,-0.006 -0.6697986,0.0376 -0.024838,0.005 -0.048232,0.002 -0.068777,0.0243 -0.1255752,0.1354 -0.2572734,0.26496 -0.3887818,0.39456 -0.035242,0.0347 -0.06436,0.0772 -0.1059436,0.10398 -0.091795,0.0592 -0.2009667,0.0859 -0.3086965,0.0948 -0.1661624,0.0138 -0.4283018,0.0625 -0.4850535,-0.0948 -0.094041,-0.26069 -0.010371,-0.83641 -0.2821229,-0.78206 -0.4409722,0.0882 -1.0855974,-0.11741 -1.3229167,0.26458 -0.089849,0.14462 -0.2049357,0.27151 -0.3228561,0.39343 -0.258001,0.26675 -0.533088,0.51616 -0.7971042,0.77683 -0.2830527,0.27946 -0.5620794,0.56661 -0.7917533,0.89244 -0.1505628,0.2136 -0.2878278,0.44418 -0.3492495,0.70001 -0.024165,0.10065 -0.043789,0.20514 -0.031922,0.30899 0.00844,0.0738 0.041575,0.14749 0.1030231,0.19212 0.076516,0.0556 0.1742649,0.0687 0.2663633,0.0684 0.1604487,-5.1e-4 0.3187128,-0.0324 0.4747134,-0.0669 0.1304326,-0.0289 0.3552015,0.0386 0.3904524,-0.0903 0.056374,-0.20607 0.157424,-0.39687 0.2704221,-0.57688 0.2001786,-0.3189 0.4374675,-0.61287 0.6874166,-0.89376 0.2727843,-0.30655 0.5365019,-0.62797 0.860569,-0.87968 0.010403,-0.008 0.033922,-0.0373 0.0336,-0.029 -0.044072,1.14587 -1.2789334,3.43762 -0.1322162,3.43762 0.8378472,0 2.4439619,0.83495 2.5135416,0 0.088195,-1.05833 -0.1667349,-4.14547 0.2645834,-3.175 0.3527777,0.79375 0.3135,2.82814 1.0583332,2.38125 0.220486,-0.13229 0.699702,-0.1426 0.661459,-0.39687 -0.06656,-0.44255 -0.123485,-0.88734 -0.222406,-1.32418 -0.07929,-0.35014 -0.188178,-0.69801 -0.370574,-1.00941 -0.144122,-0.24606 -0.338644,-0.46231 -0.5687013,-0.63088 0,0 -0.010045,-0.007 -0.010045,-0.007 z"
       id="path3719"
       inkscape:connector-curvature="0"
       inkscape:path-effect="#path-effect3721"
       inkscape:original-d="m 9.7895833,286.15208 c -0.2906732,-0.21214 -0.9135295,-0.0826 -1.0772321,-0.0709 -0.1067282,0.1226 -0.5116271,0.51751 -0.5116271,0.51751 -0.1597113,0.10659 -0.5044213,0.15272 -0.79375,0 l -0.2821229,-0.78206 -1.3229167,0.26458 c -0.403962,0.66382 -2.1686384,1.82846 -2.2920712,2.93109 -0.069087,0.61716 0.6559634,0.37118 1.2337379,0.24391 0.2472755,-0.92839 1.8520833,-2.38125 1.8520833,-2.38125 l -0.1322917,3.43958 h 2.5135416 l 0.2645834,-3.175 1.0583332,2.38125 0.661459,-0.39687 c -0.198438,-1.33709 -0.311606,-2.3441 -1.1717267,-2.97184 z"
       sodipodi:nodetypes="acccccccccccsca" />
    <path
       style="fill:#7ab3d5;fill-opacity:1;fill-rule:evenodd;stroke:#000000;stroke-width:0.26458332px;stroke-linecap:butt;stroke-linejoin:miter;stroke-opacity:1"
       d="m 7.9405236,295.06771 c 0.7756678,0.20553 0.7975933,0.12668 1.0553098,0.0802 0.1436147,-1.04958 -0.180799,-1.59365 0,-2.38125 0.1388252,-0.50712 0.2290086,-1.21184 0.00835,-1.50397 -0.2387065,-0.11774 -0.6356569,-0.10441 -0.8707151,-0.13866 -0.6342329,-0.13711 -1.2843185,-0.29714 -1.7680913,0.0265 -0.4630992,0.85758 -0.5986637,1.52145 -0.8343829,2.46953 -0.1162392,0.34594 -0.086492,0.71314 -0.1717088,1.06658 -0.080655,0.29248 -0.2048495,0.76571 0.3770459,0.56514 0.6145715,-0.10071 0.4741977,0.26648 0.7598997,-0.36154 0.1962379,-0.5945 0.1537297,-1.27486 0.3829336,-1.85903 0.1370409,-0.73994 0.8533196,-0.5699 1.0583334,0 0.2230304,0.52691 0.1501846,1.30636 -0.1474213,1.77714 -0.1171624,0.0749 -0.1171624,0.33952 0.1504448,0.25932 z"
       id="path3733"
       inkscape:connector-curvature="0"
       sodipodi:nodetypes="ccccccccccccccc" />
    <path
       style="fill:#3ad534;fill-rule:evenodd;stroke:#000000;stroke-width:0.26458332;stroke-linecap:butt;stroke-linejoin:miter;stroke-miterlimit:4;stroke-dasharray:none;stroke-opacity:1;fill-opacity:0.44534412"
       d="m 0.79375,294.35417 0.79375,0 0.5291667,0.79375 v -3.70417 L 1.5875,292.2375 H 0.79375 Z"
       id="path4656"
       inkscape:connector-curvature="0"
       sodipodi:nodetypes="ccccccc" />
    <path
       style="fill:none;fill-rule:evenodd;stroke:#000000;stroke-width:0.26458332px;stroke-linecap:butt;stroke-linejoin:miter;stroke-opacity:1"
       d="m 2.6458333,292.76667 c 0.2747865,0.26894 0.2514004,0.79524 0,1.05833"
       id="path4662"
       inkscape:connector-curvature="0"
       sodipodi:nodetypes="cc" />
    <path
       style="fill:none;fill-rule:evenodd;stroke:#000000;stroke-width:0.26458332px;stroke-linecap:butt;stroke-linejoin:miter;stroke-opacity:1"
       d="m 3.175,292.36153 c 0.2747865,0.26894 0.2514004,1.58072 0,1.84381"
       id="path4662-9"
       inkscape:connector-curvature="0"
       sodipodi:nodetypes="cc" />
  </g>
</svg>
